<?xml version="1.0" encoding="UTF-8" ?>
<!DOCTYPE svg PUBLIC "-//W3C//DTD SVG 1.1//EN" "http://www.w3.org/Graphics/SVG/1.1/DTD/svg11.dtd">
<svg width="1945pt" height="509pt" viewBox="0 0 1945 509" version="1.1" xmlns="http://www.w3.org/2000/svg">
<g id="#000000ff">
<path fill="#fff" opacity="1.00" d=" M 122.22 57.02 C 130.76 52.44 141.60 52.29 150.00 57.29 C 145.57 62.60 141.01 68.54 140.97 75.80 C 148.10 76.20 153.21 70.62 157.89 66.09 C 162.60 75.70 162.65 87.31 157.95 96.94 C 153.54 92.27 148.57 87.36 141.89 86.46 C 141.02 93.00 144.43 99.60 149.95 103.06 C 155.51 104.35 161.50 102.87 166.97 104.84 C 170.40 106.36 170.15 110.65 170.67 113.78 C 177.70 113.99 185.47 113.35 191.54 117.60 C 196.15 120.61 198.10 126.75 196.60 131.97 C 195.67 135.74 192.60 138.33 190.37 141.32 C 180.38 154.21 172.46 168.86 167.97 184.57 C 169.98 186.64 173.07 188.71 172.54 192.02 C 172.39 194.84 169.32 195.99 167.32 197.36 C 172.63 204.95 184.01 205.16 188.34 213.64 C 189.97 215.78 187.43 217.76 186.41 219.51 C 183.86 222.59 181.93 226.27 179.04 229.01 C 172.74 230.72 166.12 229.45 159.69 229.74 C 159.35 235.10 159.06 240.47 158.69 245.84 C 175.20 261.54 195.38 272.97 216.33 281.65 C 226.72 285.92 237.42 289.56 248.47 291.71 C 248.75 286.13 248.79 280.53 248.76 274.94 C 247.61 274.68 246.46 274.42 245.32 274.17 C 243.91 271.56 241.75 269.06 241.66 265.98 C 243.76 263.17 246.47 260.89 249.00 258.49 C 246.82 254.91 243.43 252.27 241.23 248.72 C 237.94 243.14 238.09 235.94 241.23 230.33 C 245.75 221.57 256.32 216.87 265.91 218.42 C 275.65 219.88 284.81 227.69 285.70 237.86 C 286.48 245.96 281.10 253.02 275.13 257.85 C 277.87 260.51 280.75 263.05 283.12 266.06 C 282.14 268.93 280.74 271.64 279.06 274.16 C 277.94 274.43 276.82 274.70 275.71 274.98 C 275.59 282.40 275.20 290.01 277.44 297.20 C 281.20 298.81 284.15 302.09 285.23 306.06 C 285.31 310.95 279.98 315.05 281.89 320.05 C 285.14 333.66 290.85 346.50 294.81 359.90 C 298.29 370.19 303.87 379.84 305.35 390.75 C 308.10 403.09 305.53 415.88 301.03 427.47 C 304.13 427.84 307.22 428.22 310.32 428.61 C 310.64 433.79 310.73 438.99 310.29 444.17 C 278.18 444.42 246.08 444.46 213.97 444.16 C 213.96 438.68 213.96 433.20 213.97 427.72 C 217.03 427.74 220.09 427.71 223.15 427.60 C 219.47 416.90 216.60 405.47 218.62 394.13 C 219.90 382.49 225.08 371.88 228.97 360.99 C 233.38 345.87 240.09 331.45 243.20 315.94 C 217.42 311.85 191.54 306.65 167.45 296.33 C 171.15 307.58 174.75 318.98 180.49 329.40 C 182.38 331.93 180.43 335.31 182.01 337.93 C 190.24 353.49 197.21 370.24 198.39 388.00 C 199.26 400.28 196.00 412.62 190.07 423.33 C 194.67 423.39 199.28 423.56 203.88 423.39 C 204.42 430.28 204.44 437.22 204.09 444.12 C 158.91 444.51 113.72 444.42 68.53 444.16 C 67.90 437.44 67.98 430.68 68.01 423.94 C 72.50 423.79 77.00 423.88 81.50 423.62 C 78.18 413.96 73.86 404.36 73.63 393.98 C 73.41 378.03 78.72 362.64 85.33 348.33 C 87.01 344.55 89.21 340.97 90.22 336.94 C 91.01 333.91 91.49 330.78 92.84 327.93 C 99.24 314.31 104.17 300.06 108.48 285.66 C 113.61 267.50 113.35 248.40 112.29 229.72 C 105.72 229.84 99.13 230.03 92.59 229.30 C 90.56 223.48 82.85 220.09 84.21 213.20 C 88.52 204.94 99.50 204.65 105.00 197.55 C 102.46 195.83 100.17 193.77 98.14 191.47 C 99.97 189.28 101.80 187.09 103.71 184.98 C 101.44 173.73 95.82 163.58 90.26 153.67 C 85.93 145.94 79.25 139.78 75.18 131.90 C 73.41 126.21 76.54 119.64 81.70 116.84 C 87.55 113.46 94.55 114.03 101.04 113.82 C 101.74 111.07 101.75 107.91 103.70 105.69 C 109.55 101.54 117.32 105.78 123.37 102.31 C 127.99 98.73 130.22 92.91 130.84 87.24 C 123.78 86.39 118.94 92.21 114.21 96.42 C 109.09 87.13 109.70 75.66 114.32 66.30 C 118.83 70.75 123.86 75.93 130.65 76.03 C 131.48 68.55 126.22 62.67 122.22 57.02 Z" />
<path fill="#fff" opacity="1.00" d=" M 499.97 220.16 C 515.76 219.30 531.58 219.97 547.38 219.82 C 548.01 290.54 547.81 361.26 547.86 431.98 C 547.84 436.49 547.49 441.00 547.08 445.49 C 531.38 445.33 515.67 445.43 499.97 445.41 C 499.04 370.33 500.06 295.24 499.97 220.16 Z" />
<path fill="#fff" opacity="1.00" d=" M 966.75 220.11 C 982.62 219.34 998.53 219.88 1014.42 219.82 C 1014.49 249.53 1014.11 279.24 1014.62 308.94 C 1023.37 300.26 1033.21 291.79 1045.41 288.63 C 1061.34 284.09 1079.51 287.18 1092.50 297.63 C 1101.89 305.27 1107.82 316.41 1110.87 327.98 C 1114.78 342.97 1114.67 358.60 1114.35 373.98 C 1114.48 397.79 1114.88 421.63 1113.82 445.43 C 1098.15 445.48 1082.48 445.28 1066.82 445.50 C 1065.72 416.35 1066.77 387.17 1066.32 358.01 C 1065.99 349.53 1064.51 340.63 1059.39 333.62 C 1054.72 327.43 1046.57 324.81 1039.04 325.52 C 1025.49 325.79 1014.34 338.73 1014.71 352.01 C 1014.45 383.14 1014.77 414.28 1014.52 445.41 C 998.60 445.40 982.68 445.40 966.76 445.41 C 966.35 370.31 966.49 295.21 966.75 220.11 Z" />
<path fill="#fff" opacity="1.00" d=" M 820.99 244.90 C 856.33 224.28 901.03 222.44 938.92 237.02 C 935.88 249.74 933.13 262.54 929.69 275.17 C 912.12 268.08 892.62 265.33 873.87 268.52 C 858.18 271.25 842.99 279.33 833.60 292.44 C 823.20 306.61 819.61 324.71 820.37 342.02 C 820.41 360.01 826.84 378.43 839.82 391.18 C 850.21 401.41 864.59 406.66 878.86 408.38 C 896.01 410.39 913.36 407.38 929.65 402.02 C 932.23 414.41 934.08 426.94 936.48 439.36 C 914.49 448.05 890.31 449.79 866.92 447.66 C 847.20 446.12 827.67 439.91 811.31 428.68 C 800.87 421.57 791.99 412.21 785.48 401.39 C 772.79 380.84 768.39 356.02 770.15 332.15 C 771.23 316.02 775.01 299.93 782.55 285.57 C 791.20 268.76 804.48 254.22 820.99 244.90 Z" />
<path fill="#fff" opacity="1.00" d=" M 347.23 307.22 C 369.70 285.54 406.01 280.49 433.92 294.13 C 447.38 300.79 457.34 313.09 463.18 326.72 C 470.78 344.33 471.33 364.16 468.69 382.91 C 435.20 382.74 401.72 382.91 368.23 382.89 C 368.40 392.38 374.48 400.78 382.32 405.68 C 391.09 411.37 401.82 412.53 412.01 413.05 C 426.64 413.41 441.11 410.61 455.27 407.24 C 457.71 417.68 459.12 428.32 461.28 438.81 C 449.12 443.84 436.11 446.46 423.04 447.63 C 402.63 449.75 381.14 448.54 362.37 439.55 C 348.35 433.11 336.94 421.56 330.26 407.69 C 323.20 393.64 321.65 377.49 322.80 362.00 C 324.56 341.76 332.57 321.58 347.23 307.22 M 377.53 327.47 C 372.13 333.52 369.32 341.48 368.59 349.47 C 387.53 350.15 406.49 350.37 425.42 349.35 C 424.50 341.58 423.13 333.32 417.81 327.21 C 407.76 315.63 387.50 315.94 377.53 327.47 Z" />
<path fill="#fff" opacity="1.00" d=" M 647.12 296.30 C 661.53 287.45 679.48 284.35 695.96 288.32 C 710.45 291.76 723.25 301.03 731.79 313.14 C 742.75 328.74 747.54 348.09 747.21 367.00 C 746.68 382.62 743.88 398.52 736.29 412.36 C 729.90 424.36 720.06 434.59 707.98 440.90 C 691.07 449.88 669.96 451.64 652.35 443.62 C 646.17 440.97 641.46 435.92 635.40 433.07 C 634.93 456.36 635.38 479.66 635.12 502.96 C 635.10 505.10 635.07 508.81 631.96 508.51 C 617.33 509.01 602.69 508.66 588.06 508.73 C 588.28 480.80 587.42 452.89 587.30 424.97 C 587.26 390.98 587.41 356.99 587.20 323.00 C 586.96 312.08 585.71 301.17 586.05 290.24 C 599.79 289.99 613.56 289.51 627.29 290.51 C 628.15 297.40 629.03 304.29 629.99 311.17 C 635.87 306.41 640.62 300.29 647.12 296.30 M 659.48 324.63 C 649.92 326.81 641.80 334.03 638.12 343.06 C 634.02 353.22 635.60 364.36 635.23 375.02 C 635.21 384.23 636.15 394.29 642.51 401.51 C 652.14 413.78 671.82 415.51 683.84 405.84 C 692.79 398.68 697.14 387.16 698.03 376.00 C 698.55 366.68 698.61 357.11 695.75 348.13 C 693.62 341.19 689.72 334.66 684.03 330.07 C 677.19 324.74 667.92 322.79 659.48 324.63 Z" />
<path fill="#fff" opacity="1.00" d=" M 1167.37 309.44 C 1179.55 296.14 1197.15 288.71 1214.91 286.96 C 1234.02 284.97 1254.41 289.94 1268.97 302.89 C 1278.51 311.79 1284.99 323.64 1288.62 336.10 C 1293.06 351.22 1293.35 367.31 1291.02 382.83 C 1257.49 382.87 1223.96 382.83 1190.42 382.90 C 1190.83 391.76 1196.02 399.81 1203.23 404.76 C 1210.36 409.96 1219.26 411.74 1227.88 412.57 C 1244.70 414.29 1261.65 411.42 1277.76 406.65 C 1279.05 417.67 1282.68 428.37 1282.94 439.52 C 1260.22 447.17 1235.85 450.37 1211.99 447.39 C 1191.16 445.15 1170.71 434.89 1158.28 417.73 C 1148.30 404.03 1144.56 386.71 1144.76 369.99 C 1144.47 347.98 1152.41 325.69 1167.37 309.44 M 1200.21 327.15 C 1194.66 333.32 1190.68 341.33 1191.04 349.80 C 1209.98 349.66 1228.95 350.71 1247.86 349.11 C 1246.58 341.61 1245.60 333.46 1240.35 327.52 C 1230.54 315.70 1210.47 316.15 1200.21 327.15 Z" />
<path fill="#fff" opacity="1.00" d=" M 1363.44 288.21 C 1383.44 284.42 1404.39 287.48 1423.07 295.30 C 1420.94 306.05 1418.11 316.67 1415.10 327.20 C 1401.13 322.03 1385.79 316.51 1370.87 320.97 C 1363.30 322.97 1359.94 333.83 1365.45 339.54 C 1373.06 346.98 1384.11 348.51 1393.58 352.50 C 1404.38 356.65 1414.98 362.58 1422.16 371.89 C 1433.96 387.71 1433.24 411.44 1420.79 426.70 C 1412.88 436.48 1401.23 442.69 1389.09 445.45 C 1364.85 451.15 1338.81 448.91 1315.92 439.13 C 1314.25 438.56 1313.66 436.56 1314.02 435.00 C 1315.74 424.45 1319.15 414.28 1321.26 403.82 C 1336.12 410.77 1352.32 416.56 1368.98 415.06 C 1373.75 414.47 1378.75 412.79 1381.92 408.98 C 1385.66 404.27 1384.68 396.70 1380.03 392.94 C 1374.12 388.00 1366.45 386.12 1359.38 383.49 C 1345.39 378.41 1331.16 371.14 1322.72 358.38 C 1313.60 344.12 1315.79 324.77 1325.16 311.18 C 1333.88 298.45 1348.62 291.15 1363.44 288.21 Z" />
<path fill="#fff" opacity="1.00" d=" M 1471.35 302.32 C 1483.01 292.63 1498.05 287.64 1513.07 286.71 C 1529.75 285.63 1546.54 289.08 1561.90 295.56 C 1558.92 306.17 1556.68 317.01 1553.17 327.45 C 1539.74 321.82 1524.65 316.73 1510.07 320.76 C 1503.15 322.46 1498.43 331.29 1502.28 337.67 C 1505.57 342.74 1511.49 345.02 1516.85 347.20 C 1530.46 352.41 1545.18 356.68 1555.79 367.26 C 1570.37 380.87 1572.57 404.66 1562.62 421.56 C 1555.11 434.89 1540.55 442.51 1526.08 445.83 C 1501.38 450.96 1474.75 448.96 1451.93 437.76 C 1454.50 426.38 1457.23 415.03 1459.89 403.66 C 1470.78 409.43 1482.65 413.44 1494.91 414.88 C 1502.29 415.82 1510.35 415.73 1516.98 411.95 C 1524.33 408.10 1524.21 395.89 1517.12 391.85 C 1507.48 385.45 1495.74 383.70 1485.56 378.44 C 1472.91 372.35 1460.83 362.54 1456.60 348.65 C 1452.17 332.10 1458.45 313.44 1471.35 302.32 Z" />
<path fill="#fff" opacity="1.00" d=" M 1675.54 369.74 C 1692.18 366.48 1710.43 374.07 1719.51 388.46 C 1726.29 398.78 1727.28 412.60 1721.83 423.72 C 1714.27 439.89 1695.59 449.60 1678.00 447.13 C 1660.34 445.12 1644.19 430.92 1641.84 412.99 C 1639.64 398.38 1647.67 383.58 1659.98 375.90 C 1664.70 372.86 1670.02 370.77 1675.54 369.74 M 1677.42 390.58 C 1669.21 393.40 1663.57 402.38 1665.10 411.02 C 1666.48 420.70 1676.32 428.45 1686.12 426.75 C 1696.51 425.32 1704.25 414.04 1701.47 403.83 C 1699.17 393.62 1687.34 386.73 1677.42 390.58 Z" />
<path fill="#fff" opacity="1.00" d=" M 1762.46 384.27 C 1767.18 375.10 1776.80 368.55 1787.30 368.94 C 1787.32 375.78 1787.31 382.62 1787.31 389.46 C 1780.27 389.60 1772.75 391.48 1767.93 396.94 C 1763.70 401.50 1762.49 407.92 1762.51 413.94 C 1762.50 424.61 1762.47 435.28 1762.53 445.95 C 1754.31 446.06 1746.09 445.98 1737.88 445.99 C 1737.87 420.83 1737.87 395.67 1737.88 370.51 C 1746.08 370.49 1754.29 370.49 1762.50 370.50 C 1762.49 375.09 1762.52 379.68 1762.46 384.27 Z" />
<path fill="#fff" opacity="1.00" d=" M 1804.64 378.50 C 1817.02 365.40 1840.36 366.09 1852.03 379.80 C 1851.97 376.71 1851.98 373.62 1852.01 370.53 C 1860.27 370.57 1868.53 370.44 1876.80 370.61 C 1876.67 393.08 1876.79 415.56 1876.74 438.04 C 1876.80 444.89 1874.40 451.75 1869.99 457.00 C 1862.67 465.78 1851.19 469.95 1840.06 470.80 C 1826.41 471.75 1812.06 468.95 1800.71 461.02 C 1803.46 455.31 1806.23 449.60 1809.01 443.90 C 1816.44 449.21 1825.95 451.07 1834.95 450.30 C 1840.55 449.71 1846.62 447.80 1850.05 443.02 C 1852.83 439.23 1851.80 434.26 1852.01 429.89 C 1841.48 441.79 1822.06 444.03 1809.14 434.77 C 1791.42 422.38 1789.77 393.74 1804.64 378.50 M 1831.17 390.16 C 1822.65 391.98 1817.76 401.91 1820.90 409.91 C 1823.87 419.17 1835.93 422.48 1844.08 418.10 C 1851.89 414.33 1854.27 403.41 1849.62 396.33 C 1845.81 390.34 1837.76 388.39 1831.17 390.16 Z" />
<path fill="#fff" opacity="1.00" d=" M 1609.44 418.62 C 1616.61 415.43 1625.70 419.03 1628.80 426.22 C 1632.54 433.93 1628.06 444.16 1619.93 446.76 C 1611.88 449.62 1602.22 444.26 1600.44 435.90 C 1598.47 428.90 1602.72 421.14 1609.44 418.62 Z" />
</g>
</svg>
