<?xml version="1.0" encoding="UTF-8"?>
<svg version="1.1" xmlns="http://www.w3.org/2000/svg" width="1200" height="428">
<path d="M0 0 C-1.08134796 2.24587654 -2.21503459 4.33545396 -3.5625 6.4375 C-5.01156616 9.02061794 -5.58394145 11.08759012 -6 14 C-1.37922842 12.00466682 0.98418302 9.98518672 4 6 C4.66 6 5.32 6 6 6 C8.94475526 12.62569935 10.53482356 19.05151713 8.3203125 26.19140625 C7.62524563 27.82977815 6.82323501 29.42213291 6 31 C3 30 3 30 0.5625 27.5 C-1.96368997 25.03542442 -2.73096247 24.61077559 -6 24 C-5.54857119 25.29409592 -5.08858979 26.58521059 -4.625 27.875 C-4.36976562 28.59429687 -4.11453125 29.31359375 -3.8515625 30.0546875 C-3.06122217 32.18157994 -3.06122217 32.18157994 -1 34 C1.13767051 34.25048603 3.28734069 34.40411776 5.4375 34.5 C11.66766467 34.77844311 11.66766467 34.77844311 15 37 C15.1875 39.625 15.1875 39.625 15 42 C16.134375 41.938125 17.26875 41.87625 18.4375 41.8125 C23.82348563 41.85076633 29.55009581 42.518029 33.4921875 46.51171875 C35.43470512 49.49247855 36.00663595 51.77543957 35.90234375 55.3046875 C34.79403326 59.84348282 32.85202359 62.32475655 29.9375 65.875 C22.65066913 75.23867889 17.54859797 85.68332686 14 97 C15.485 97.495 15.485 97.495 17 98 C17.8125 99.875 17.8125 99.875 18 102 C17.34 102.99 16.68 103.98 16 105 C15.34 105 14.68 105 14 105 C14 105.66 14 106.32 14 107 C15.485 107.495 15.485 107.495 17 108 C17 108.66 17 109.32 17 110 C17.886875 110.0825 18.77375 110.165 19.6875 110.25 C23.57021127 111.12910444 25.30519057 112.0742069 28 115 C29.125 118.375 29.125 118.375 29 122 C26.6875 125.25 26.6875 125.25 24 128 C23.34 128.99 22.68 129.98 22 131 C19.37302936 131.22137393 16.99106036 131.28162025 14.375 131.1875 C13.66859375 131.17396484 12.9621875 131.16042969 12.234375 131.14648438 C10.48925872 131.1111104 8.74453392 131.05730221 7 131 C6.78117796 137.83051087 6.78117796 137.83051087 9.35546875 143.97265625 C11.4619067 145.87249261 13.63693124 147.42815307 16 149 C17.52560547 150.06154297 17.52560547 150.06154297 19.08203125 151.14453125 C33.23902717 160.76641245 54.57810631 174 72 174 C72.33 170.7 72.66 167.4 73 164 C71.68 163.67 70.36 163.34 69 163 C67 160 67 160 67.0625 157.625 C68.29101559 154.18515634 70.31210496 152.4122135 73 150 C72.38769531 149.74347656 71.77539062 149.48695313 71.14453125 149.22265625 C67.48000636 147.13340982 66.2264054 143.92854039 65 140 C64.46974241 135.64431266 65.07548302 132.40362864 67.5 128.72265625 C71.18535045 124.33041746 74.10837747 121.36336526 79.953125 120.62890625 C86.23874781 120.5023001 91.24910114 120.52020466 96.41015625 124.3828125 C100.23366656 128.27208343 101.790495 132.26410141 102.4375 137.625 C101.66657821 143.57211093 98.82759118 147.51247931 95 152 C96.65 153.32 98.3 154.64 100 156 C99.64697696 159.17720739 99.48473565 160.59729654 96.96875 162.6875 C94.23965572 165.8931028 94.55352885 168.75256779 94.75 172.75 C94.76804688 173.44738281 94.78609375 174.14476562 94.8046875 174.86328125 C94.85161446 176.57611539 94.92335395 178.28823824 95 180 C95.804375 180.28875 96.60875 180.5775 97.4375 180.875 C100 182 100 182 101 184 C101.35871507 191.41344487 101.35871507 191.41344487 99.8972168 193.80322266 C98.67005008 196.80786107 99.34580299 198.18869937 100.4140625 201.21875 C100.76339844 202.23453125 101.11273438 203.2503125 101.47265625 204.296875 C102.04306641 205.88242187 102.04306641 205.88242187 102.625 207.5 C103.34635417 209.57291667 104.06770833 211.64583333 104.7890625 213.71875 C105.15507568 214.75314209 105.52108887 215.78753418 105.89819336 216.85327148 C106.99922443 219.99778498 108.05858661 223.153491 109.10546875 226.31640625 C110.9477591 231.87695554 112.92880488 237.37281576 114.94921875 242.87109375 C118.55846328 253.61832374 118.54734859 266.57899282 114 277 C115.98 277.33 117.96 277.66 120 278 C120 282.62 120 287.24 120 292 C110.62963746 292.02255243 101.25929282 292.0409159 91.88890934 292.05181217 C87.53831541 292.05704065 83.18774093 292.06413765 78.8371582 292.07543945 C74.64209742 292.08626959 70.44705541 292.0922771 66.25198174 292.09487724 C64.64793032 292.09673126 63.04387997 292.10035144 61.4398365 292.10573006 C59.20083485 292.11294219 56.9619117 292.11399087 54.72290039 292.11352539 C53.44604874 292.115746 52.16919708 292.11796661 50.85365295 292.12025452 C48 292 48 292 47 291 C46.92741054 288.81360547 46.91626217 286.62499611 46.9375 284.4375 C46.94652344 283.23996094 46.95554687 282.04242188 46.96484375 280.80859375 C46.97644531 279.88175781 46.98804688 278.95492188 47 278 C48.98 277.67 50.96 277.34 53 277 C52.7834375 276.45214844 52.566875 275.90429688 52.34375 275.33984375 C46.98755714 260.08957241 50.21558029 244.48192498 57.0078125 230.265625 C58.87774602 225.99569806 60.06507239 221.49371066 61.38769531 217.03076172 C62.63226236 212.90304693 63.94697174 208.79705067 65.25 204.6875 C65.77605393 203.02474346 66.30209659 201.36198336 66.828125 199.69921875 C67.21484375 198.47847656 67.6015625 197.25773438 68 196 C67.14994385 195.8141333 66.2998877 195.6282666 65.42407227 195.43676758 C48.04711147 191.62082133 30.88595679 187.68005548 14 182 C14.34780518 182.86165771 14.34780518 182.86165771 14.70263672 183.74072266 C15.76194136 186.36807346 16.81849143 188.99652367 17.875 191.625 C18.42220703 192.98044922 18.42220703 192.98044922 18.98046875 194.36328125 C21.17114095 199.82004656 23.14600973 205.28409102 24.91015625 210.89453125 C25.96673167 213.90520314 27.19066467 216.75568994 28.51342773 219.65527344 C35.34513594 234.67961667 39.93605615 251.37625708 34.0625 267.625 C33.41310138 269.10069434 32.73516298 270.56510358 32 272 C31.67 272.66 31.34 273.32 31 274 C31.63808594 273.98839844 32.27617187 273.97679687 32.93359375 273.96484375 C33.75988281 273.95582031 34.58617187 273.94679688 35.4375 273.9375 C36.26121094 273.92589844 37.08492188 273.91429687 37.93359375 273.90234375 C40 274 40 274 41 275 C41.09981214 277.6773138 41.13879875 280.32304175 41.125 283 C41.12886719 283.75023437 41.13273437 284.50046875 41.13671875 285.2734375 C41.12661053 290.87338947 41.12661053 290.87338947 40 292 C36.83923656 292.10069779 33.70027973 292.13614023 30.5390625 292.12939453 C29.54565857 292.13114685 28.55225464 292.13289917 27.52874756 292.13470459 C24.22748088 292.13912511 20.92626727 292.13618441 17.625 292.1328125 C15.34195953 292.13348548 13.05891913 292.13445546 10.77587891 292.13571167 C5.98404256 292.13718891 1.19222481 292.13503323 -3.59960938 292.13037109 C-9.75716635 292.1246738 -15.91467974 292.12795266 -22.07223511 292.13394356 C-26.78865897 292.13754845 -31.50507241 292.13641091 -36.22149658 292.13381577 C-38.4926148 292.1331463 -40.76373394 292.1339756 -43.03485107 292.13629532 C-46.20294722 292.13882067 -49.37097172 292.1349829 -52.5390625 292.12939453 C-53.48767151 292.13141876 -54.43628052 292.13344299 -55.41363525 292.13552856 C-61.88573776 292.11426224 -61.88573776 292.11426224 -63 291 C-63.09981214 288.3226862 -63.13879875 285.67695825 -63.125 283 C-63.12886719 282.24976563 -63.13273437 281.49953125 -63.13671875 280.7265625 C-63.12661053 275.12661053 -63.12661053 275.12661053 -62 274 C-60.48071962 273.92820036 -58.95832518 273.91607993 -57.4375 273.9375 C-56.61121094 273.94652344 -55.78492188 273.95554687 -54.93359375 273.96484375 C-54.29550781 273.97644531 -53.65742187 273.98804688 -53 274 C-53.27714844 273.39671875 -53.55429687 272.7934375 -53.83984375 272.171875 C-54.20207031 271.37265625 -54.56429687 270.5734375 -54.9375 269.75 C-55.29714844 268.96109375 -55.65679687 268.1721875 -56.02734375 267.359375 C-61.17095501 254.8825027 -58.66336603 239.10373692 -53.81787109 226.93212891 C-51.86065649 222.3084285 -49.70998882 217.78897779 -47.453125 213.3046875 C-46.04145956 210.09428706 -45.53983051 207.43858423 -45 204 C-44.16200751 201.89273549 -43.26046154 199.8101369 -42.3125 197.75 C-32.60936742 175.85651135 -29.51593911 154.83011575 -29 131 C-30.01320312 131.0928125 -31.02640625 131.185625 -32.0703125 131.28125 C-42.73389578 131.9624976 -42.73389578 131.9624976 -46.296875 129.25390625 C-47.75718334 127.22610185 -48.92432718 125.25129754 -50 123 C-50.33 122.67 -50.66 122.34 -51 122 C-50.84512807 117.89589394 -50.6372595 115.69188174 -47.8125 112.625 C-44.79081505 110.87913759 -42.45419117 110.32132011 -39 110 C-38.505 108.515 -38.505 108.515 -38 107 C-37.34 107 -36.68 107 -36 107 C-36 106.34 -36 105.68 -36 105 C-37.485 104.505 -37.485 104.505 -39 104 C-39.8125 102.125 -39.8125 102.125 -40 100 C-39.34 99.01 -38.68 98.02 -38 97 C-37.34 97 -36.68 97 -36 97 C-39.72810835 86.50288386 -43.92390499 76.29005256 -50.70703125 67.3515625 C-51.39986206 66.43395142 -51.39986206 66.43395142 -52.10668945 65.49780273 C-53.01202005 64.32152336 -53.93813857 63.16085481 -54.88745117 62.01977539 C-57.34500879 58.85668074 -58.30813218 56.68275678 -57.9140625 52.76171875 C-56.82416101 48.27635491 -55.69233542 46.72911748 -52 44 C-46.8661159 41.96581951 -42.42694535 41.80958086 -37 42 C-37.061875 41.21625 -37.12375 40.4325 -37.1875 39.625 C-37.0946875 38.325625 -37.0946875 38.325625 -37 37 C-33.44474644 34.62983096 -31.768714 34.80729236 -27.5625 34.75 C-22.24811873 34.54224014 -22.24811873 34.54224014 -18.25 31.1875 C-16.84847577 27.66638398 -16.84847577 27.66638398 -16 24 C-21.99004174 26.1953742 -21.99004174 26.1953742 -26 31 C-26.99 30.67 -27.98 30.34 -29 30 C-31.75625465 24.34242466 -32.00666319 17.60769465 -30.32421875 11.578125 C-29.6184093 9.69150638 -28.81809402 7.84071154 -28 6 C-27.34 6 -26.68 6 -26 6 C-24.7876751 7.50721474 -23.576344 9.01526829 -22.375 10.53125 C-20.51749665 12.51540131 -18.5836466 13.26181526 -16 14 C-17.19590661 8.9173969 -18.54572941 6.02998235 -22 2 C-22 1.34 -22 0.68 -22 0 C-13.889855 -4.0550725 -8.110145 -4.0550725 0 0 Z " fill="#FFFFFF" transform="translate(115,50)"/>
<path d="M0 0 C12.54640426 10.87620147 17.8870107 27.46218653 19.33984375 43.51171875 C20.21010566 63.78245341 15.34388279 82.78813441 1.46484375 98.13671875 C-10.49407072 108.05699948 -23.88212605 113.22597601 -39.53515625 112.13671875 C-48.50954695 110.77205625 -57.00800154 107.66387346 -63.53515625 101.13671875 C-63.86515625 119.28671875 -64.19515625 137.43671875 -64.53515625 156.13671875 C-68.95015242 157.01971798 -72.55510113 157.25217714 -77.0234375 157.234375 C-77.7266362 157.23296005 -78.4298349 157.2315451 -79.15434265 157.23008728 C-81.38549169 157.22451984 -83.61653789 157.2119735 -85.84765625 157.19921875 C-87.366535 157.19419954 -88.88541534 157.18963737 -90.40429688 157.18554688 C-94.11461637 157.17456111 -97.82487626 157.15731909 -101.53515625 157.13671875 C-102.66727951 153.74034898 -102.65816393 151.16971259 -102.65541077 147.58784485 C-102.65626519 146.91966254 -102.65711962 146.25148023 -102.65799993 145.56304997 C-102.65964959 143.31975686 -102.65414176 141.0765382 -102.64868164 138.83325195 C-102.64839963 137.22691856 -102.64855777 135.62058503 -102.64912415 134.01425171 C-102.64941159 129.64885485 -102.64352343 125.28348536 -102.63655019 120.91809487 C-102.63030782 116.35768538 -102.62971215 111.79727529 -102.62852478 107.23686218 C-102.62541408 98.5990016 -102.61720419 89.96115365 -102.60717529 81.32329863 C-102.59600607 71.49028607 -102.59050166 61.65727291 -102.58547986 51.82425559 C-102.57502138 31.59506802 -102.55667912 11.36589777 -102.53515625 -8.86328125 C-92.30515625 -8.86328125 -82.07515625 -8.86328125 -71.53515625 -8.86328125 C-70.16985672 -4.76738265 -69.28107413 -2.06837794 -68.91015625 2.01171875 C-68.83539063 2.79289063 -68.760625 3.5740625 -68.68359375 4.37890625 C-68.63460937 4.95898438 -68.585625 5.5390625 -68.53515625 6.13671875 C-67.76945312 5.26660156 -67.76945312 5.26660156 -66.98828125 4.37890625 C-48.50082814 -15.48527209 -21.10684418 -15.51304264 0 0 Z M-60.53515625 27.13671875 C-65.18242006 34.02835062 -65.15543588 41.58898563 -65.05664062 49.62084961 C-65.03515245 51.69958622 -65.05654159 53.77488246 -65.08203125 55.85351562 C-65.10080068 64.38173039 -64.48330576 70.46744604 -58.82421875 77.16015625 C-53.14156709 81.77564328 -48.19591265 83.60130535 -40.83203125 83.37890625 C-34.23786845 82.68360337 -29.57004669 80.0752879 -25.07421875 75.23046875 C-18.4314626 66.19362282 -17.85099693 54.94887945 -18.53515625 44.13671875 C-20.09033116 34.47405113 -23.06676573 27.62594418 -30.75 21.39453125 C-40.96117203 14.19978859 -52.82569383 18.71140172 -60.53515625 27.13671875 Z " fill="#FFFFFF" transform="translate(543.53515625,232.86328125)"/>
<path d="M0 0 C12.21 0 24.42 0 37 0 C37.33 21.12 37.66 42.24 38 64 C40.64 61.69 43.28 59.38 46 57 C48.72265625 55.29296875 48.72265625 55.29296875 51.0625 54.1875 C51.83722656 53.80980469 52.61195313 53.43210938 53.41015625 53.04296875 C64.42998294 48.60511999 76.16777249 48.40078954 87.28515625 52.68359375 C96.65465971 57.22679183 103.33159002 64.49524377 107.28515625 74.1328125 C109.81457862 81.51256093 111.14368404 88.18143439 111.22119141 95.98730469 C111.23845024 97.17104927 111.23845024 97.17104927 111.25605774 98.37870789 C111.29262038 100.97639138 111.32233664 103.57409936 111.3515625 106.171875 C111.37468521 107.97837661 111.39807561 109.78487481 111.42172241 111.59136963 C111.47009518 115.37061579 111.51504431 119.14988341 111.55761719 122.92919922 C111.61260939 127.78412278 111.67641845 132.6388841 111.74279213 137.49366379 C111.79273276 141.22009225 111.83791019 144.94656668 111.88163376 148.67307281 C111.90325536 150.46414321 111.92641094 152.25519575 111.9510994 154.0462265 C111.98480093 156.54088117 112.01207695 159.03552354 112.03759766 161.53027344 C112.04897263 162.27623276 112.0603476 163.02219208 112.07206726 163.79075623 C112.08644456 165.52727746 112.0488755 167.26410718 112 169 C111 170 111 170 107.48999023 170.11352539 C105.92951578 170.11336626 104.36903607 170.10767142 102.80859375 170.09765625 C101.98875504 170.0962413 101.16891632 170.09482635 100.32423401 170.09336853 C97.69528618 170.08775289 95.06642227 170.07519779 92.4375 170.0625 C90.65950643 170.05748701 88.88151154 170.05292376 87.10351562 170.04882812 C82.73564455 170.03777839 78.36783652 170.02050331 74 170 C73.99453156 168.64269272 73.99453156 168.64269272 73.98895264 167.25796509 C73.95095675 158.69606784 73.89397309 150.13454703 73.81609726 141.57291603 C73.7767261 137.17213152 73.74448717 132.771544 73.72900391 128.37060547 C73.71376857 124.11688917 73.67920271 119.86371481 73.63169098 115.61024094 C73.61694764 113.99414172 73.60896306 112.3779651 73.60811615 110.76179886 C73.68352274 97.85489474 73.68352274 97.85489474 69 86 C64.27668713 82.04784025 60.28566717 80.67595106 54.12109375 80.7890625 C49.17942146 81.28049952 45.43300763 83.19296211 42.1875 86.875 C38.56009356 92.0570092 37.70091113 96.20212329 37.68115234 102.45239258 C37.66608391 103.55076447 37.66608391 103.55076447 37.65071106 104.67132568 C37.61994929 107.07905327 37.60286367 109.48667002 37.5859375 111.89453125 C37.56722019 113.56891326 37.54764636 115.24328589 37.5272522 116.91764832 C37.47598439 121.31520046 37.43633009 125.71278316 37.39910889 130.11047363 C37.35198458 135.39197539 37.2904097 140.67332612 37.23126221 145.95470428 C37.14311516 153.96974172 37.07330432 161.98475116 37 170 C24.79 170 12.58 170 0 170 C0 113.9 0 57.8 0 0 Z " fill="#FFFFFF" transform="translate(726,172)"/>
<path d="M0 0 C1.84730713 0.00628418 1.84730713 0.00628418 3.73193359 0.01269531 C17.29572766 0.18052428 27.57425685 2.21720274 40.3125 7.3125 C36.8475 21.1725 36.8475 21.1725 33.3125 35.3125 C28.64954935 36.47823766 26.96677038 35.77332984 22.4375 34.375 C6.70219423 30.034226 -11.04378608 30.41600385 -25.734375 37.85546875 C-35.72967954 43.7581013 -41.99473315 51.28830592 -45.6875 62.3125 C-49.91701283 79.0097334 -50.93378399 97.40069648 -42.25390625 112.97265625 C-34.31049113 124.83825639 -24.63335341 131.49812597 -10.6875 134.3125 C-1.67067278 135.97865286 6.96726024 135.43032383 15.9375 133.875 C17.55461763 133.60504985 19.1718041 133.33551175 20.7890625 133.06640625 C21.5512207 132.93766113 22.31337891 132.80891602 23.09863281 132.67626953 C26.16377481 132.17262357 29.23552123 131.73733755 32.3125 131.3125 C34.78517552 140.57188065 36.62581973 149.8862301 38.3125 159.3125 C18.46853116 171.3015645 -11.72626263 168.81244292 -33.4375 163.625 C-45.33564701 160.17644616 -55.48337265 154.61552397 -64.6875 146.3125 C-65.38359375 145.70921875 -66.0796875 145.1059375 -66.796875 144.484375 C-81.6668054 130.76715238 -87.94935996 110.53230583 -88.97265625 90.82421875 C-89.67553626 67.55863863 -83.50231375 44.77162328 -68.12890625 26.875 C-49.99709731 7.84385334 -25.79124169 -0.11974631 0 0 Z " fill="#FFFFFF" transform="translate(666.6875,177.6875)"/>
<path d="M0 0 C0.93392578 0.73863281 0.93392578 0.73863281 1.88671875 1.4921875 C2.93859375 2.2553125 3.99046875 3.0184375 5.07421875 3.8046875 C16.51007834 14.73228666 21.60155612 30.77714587 22.1015625 46.27734375 C22.18800786 52.49083743 22.11200443 58.36575912 20.88671875 64.4921875 C-3.86328125 64.4921875 -28.61328125 64.4921875 -54.11328125 64.4921875 C-50.73957722 75.12432741 -50.73957722 75.12432741 -42.48828125 81.1796875 C-25.54786879 89.05549329 -6.72095747 84.88792426 10.88671875 81.4921875 C11.56306939 84.69855723 12.22604323 87.90755439 12.88671875 91.1171875 C13.0775 92.02082031 13.26828125 92.92445313 13.46484375 93.85546875 C14.40882273 98.47422306 15.13886643 102.74865922 14.88671875 107.4921875 C-9.50799494 115.59752786 -37.10048989 118.20086546 -61.11328125 107.3671875 C-74.94810558 100.11313518 -83.51328581 88.08279804 -88.11328125 73.4921875 C-93.37374666 56.50526794 -90.26781689 37.92817589 -82.92578125 22.1171875 C-79.49909887 15.67473112 -75.33605185 10.55584144 -70.11328125 5.4921875 C-69.53835938 4.90824219 -68.9634375 4.32429687 -68.37109375 3.72265625 C-51.43375066 -12.28272777 -18.52317008 -13.7639822 0 0 Z M-48.86328125 23.0546875 C-52.15634825 27.39707076 -55.11328125 34.00035667 -55.11328125 39.4921875 C-41.25328125 39.4921875 -27.39328125 39.4921875 -13.11328125 39.4921875 C-13.11328125 30.68080427 -14.04874671 27.1067667 -19.55078125 20.6171875 C-24.49323015 16.51857134 -29.08213751 16.0451844 -35.328125 16.1796875 C-41.04894336 16.82157455 -44.71284691 19.18723732 -48.86328125 23.0546875 Z " fill="#FFFFFF" transform="translate(333.11328125,230.5078125)"/>
<path d="M0 0 C12.49603694 9.98098672 18.40389751 24.39096713 20.46484375 39.96875 C20.60260015 43.15754226 20.60465265 46.33993247 20.58984375 49.53125 C20.59371094 50.36849609 20.59757813 51.20574219 20.6015625 52.06835938 C20.60027344 52.88240234 20.59898437 53.69644531 20.59765625 54.53515625 C20.59652832 55.26677979 20.59540039 55.99840332 20.59423828 56.75219727 C20.46484375 58.96875 20.46484375 58.96875 19.46484375 63.96875 C-5.28515625 63.96875 -30.03515625 63.96875 -55.53515625 63.96875 C-52.16145222 74.60088991 -52.16145222 74.60088991 -43.91015625 80.65625 C-27.24180053 88.40557327 -7.84530916 84.78873031 9.46484375 80.96875 C10.1434915 83.98701782 10.80554088 87.0087027 11.46484375 90.03125 C11.655625 90.87880859 11.84640625 91.72636719 12.04296875 92.59960938 C13.10403486 97.50704014 13.68280494 101.94883123 13.46484375 106.96875 C-11.15821272 115.14995909 -38.21189726 117.39300385 -62.53515625 106.96875 C-76.36379277 99.28617416 -85.05335678 87.96315744 -89.53515625 72.96875 C-94.43589941 54.63941684 -91.85452167 35.17526376 -82.7734375 18.640625 C-75.09155234 5.54474369 -63.06275131 -3.57987599 -48.47924805 -7.59765625 C-31.92118006 -11.63137809 -14.18033815 -9.82836946 0 0 Z M-50.34765625 22.78125 C-54.23297942 28.44272091 -55.53515625 32.01992322 -55.53515625 38.96875 C-42.00515625 38.96875 -28.47515625 38.96875 -14.53515625 38.96875 C-12.74305983 35.38455717 -14.36454611 31.63861278 -15.53515625 27.96875 C-17.87386197 22.58406868 -20.7522977 18.90905248 -26.23046875 16.59375 C-35.63528342 14.04329178 -43.52982659 15.96342034 -50.34765625 22.78125 Z " fill="#FFFFFF" transform="translate(950.53515625,231.03125)"/>
<path d="M0 0 C-0.68534008 5.805697 -2.03223012 11.30079162 -3.5625 16.9375 C-3.79646484 17.81212891 -4.03042969 18.68675781 -4.27148438 19.58789062 C-4.84405249 21.72625725 -5.42029595 23.86355903 -6 26 C-9.81651093 25.33473663 -13.28740566 24.22170722 -16.9375 22.9375 C-26.03394689 20.09486035 -35.00979242 19.61002731 -44 23 C-45.0302894 27.43024443 -45.19104021 29.97356669 -43 34 C-40.69130109 35.69677369 -40.69130109 35.69677369 -37.8125 36.9375 C-36.74 37.44152344 -35.6675 37.94554687 -34.5625 38.46484375 C-30.84313477 40.06759653 -27.08999253 41.5421039 -23.3125 43 C-12.75751756 47.09902231 -2.5065996 53.01446863 2.375 63.6875 C6.1644451 72.96340258 6.57216786 83.0405317 2.875 92.4375 C-2.09721357 102.8515251 -9.57239592 109.21569994 -20.44921875 113.29296875 C-41.85791978 119.5949987 -63.49268258 117.38255311 -84 109 C-83.37547911 102.79786153 -82.0842258 97.00570586 -80.4375 91 C-80.20353516 90.12988281 -79.96957031 89.25976562 -79.72851562 88.36328125 C-79.15709256 86.24085272 -78.58085043 84.11986406 -78 82 C-73.60962265 82.75642381 -69.8688291 84.21614673 -65.79296875 85.96484375 C-59.21823775 88.40163216 -53.26990921 89.34358762 -46.3125 89.3125 C-45.21325195 89.33666992 -45.21325195 89.33666992 -44.09179688 89.36132812 C-39.52742314 89.36544388 -36.65515893 88.76058849 -33 86 C-31.61822838 84.8448749 -31.61822838 84.8448749 -31.875 81.6875 C-31.83111926 77.67306727 -31.83111926 77.67306727 -33 74 C-34.98558181 73.29154441 -36.99050639 72.63747931 -39 72 C-60.24302789 64.23812443 -60.24302789 64.23812443 -68 58 C-69.051875 57.2575 -70.10375 56.515 -71.1875 55.75 C-77.79571957 49.28862975 -81.13511425 42.11487878 -81.3125 32.9375 C-81.33457097 22.72477354 -78.13094065 14.38296973 -71 7 C-64.04017262 0.84106037 -56.98197675 -2.72233541 -48 -5 C-47.25234375 -5.19207031 -46.5046875 -5.38414062 -45.734375 -5.58203125 C-30.52435677 -7.90699118 -14.1163825 -6.04987821 0 0 Z " fill="#FFFFFF" transform="translate(1173,228)"/>
<path d="M0 0 C-0.49403471 9.05730307 -3.32226777 17.39370934 -6 26 C-9.81651093 25.33473663 -13.28740566 24.22170722 -16.9375 22.9375 C-24.46391484 20.60260085 -32.5071004 19.36278654 -40.21484375 21.66015625 C-42.14158272 22.58249715 -42.14158272 22.58249715 -44 25 C-44.83333333 28.5 -44.83333333 28.5 -44 32 C-41.37785663 35.14878482 -38.95064476 36.70440383 -35.1484375 38.1484375 C-34.21386719 38.51453125 -33.27929688 38.880625 -32.31640625 39.2578125 C-31.34574219 39.62648438 -30.37507813 39.99515625 -29.375 40.375 C-15.15298137 45.79291186 -3.03783688 51.90140169 4 66 C6.68610202 73.45959658 6.1573842 85.0780547 3.5 92.5 C-1.45289144 102.68286771 -9.73969503 109.16138452 -20.1171875 113.21875 C-38.83210125 119.26976137 -60.75034319 118.32593366 -79 111 C-80.65 110.01 -82.3 109.02 -84 108 C-82.02 99.42 -80.04 90.84 -78 82 C-73.70549183 82.85890163 -70.02773017 83.99514526 -65.9375 85.5 C-59.16589853 87.98605219 -53.84929703 89.18129356 -46.625 89.1875 C-45.8825 89.19974609 -45.14 89.21199219 -44.375 89.22460938 C-39.85322517 89.23659288 -36.25941878 88.7105285 -32 87 C-31.89132698 85.41820385 -31.81410173 83.83422847 -31.75 82.25 C-31.70359375 81.36828125 -31.6571875 80.4865625 -31.609375 79.578125 C-32.12857363 76.15141401 -33.39826479 75.2368273 -36 73 C-38.41005525 71.77398783 -38.41005525 71.77398783 -41.0703125 70.88671875 C-42.05 70.52513672 -43.0296875 70.16355469 -44.0390625 69.79101562 C-46.07186062 69.06409731 -48.1056935 68.34006519 -50.140625 67.61914062 C-62.2284129 63.14539667 -73.65913653 55.87984333 -79.2734375 43.89453125 C-82.60784535 35.19997316 -81.73919504 25.41981862 -78 17 C-71.47997774 5.3571031 -62.22923842 -0.53032862 -49.77734375 -4.75390625 C-33.65462018 -8.82013107 -15.12117521 -6.35089359 0 0 Z " fill="#FFFFFF" transform="translate(1069,228)"/>
<path d="M0 0 C12.21 0 24.42 0 37 0 C37 56.1 37 112.2 37 170 C24.79 170 12.58 170 0 170 C0 113.9 0 57.8 0 0 Z " fill="#FFFFFF" transform="translate(376,172)"/>
<path d="" fill="#FFFFFF" transform="translate(0,0)"/>
</svg>
